
<svg xmlns="http://www.w3.org/2000/svg" viewBox="0 0 448 512" fill="#002244">
<path d="M224,202.66A53.34,53.34,0,1,0,277.34,256,53.38,53.38,0,0,0,224,202.66Zm124.71-41a54,54,0,0,0-30.78-30.78C291.27,123,224,123,224,123s-67.27,0-93.93,7.89a54,54,0,0,0-30.78,30.78C91.39,149.33,91.39,192,91.39,192s0,42.67,7.89,69.33a54,54,0,0,0,30.78,30.78C156.73,299,224,299,224,299s67.27,0,93.93-7.89a54,54,0,0,0,30.78-30.78C356.61,234.67,356.61,192,356.61,192S356.61,149.33,348.71,161.61ZM224,271.49A59.49,59.49,0,1,1,283.49,212,59.55,59.55,0,0,1,224,271.49ZM312.89,170a14,14,0,1,1,14-14A14,14,0,0,1,312.89,170ZM398.8,80.47A48,48,0,0,0,367.53,49.2C341.08,32,224,32,224,32S106.92,32,80.47,49.2A48,48,0,0,0,49.2,80.47C32,106.92,32,224,32,224s0,117.08,17.2,143.53A48,48,0,0,0,80.47,398.8C106.92,416,224,416,224,416s117.08,0,143.53-17.2a48,48,0,0,0,31.27-31.27C416,341.08,416,224,416,224S416,106.92,398.8,80.47ZM384,368a32,32,0,0,1-19.2,19.2c-21.1,8.4-107.2,8.4-140.8,8.4s-119.7,0-140.8-8.4A32,32,0,0,1,64,368C55.6,346.9,55.6,260.8,55.6,224s0-122.9,8.4-144A32,32,0,0,1,83.2,60.8C104.3,52.4,190.4,52.4,224,52.4s119.7,0,140.8,8.4a32,32,0,0,1,19.2,19.2c8.4,21.1,8.4,107.2,8.4,140.8S392.4,346.9,384,368Z"/>
</svg>
